<svg width="100" height="100" viewBox="0 0 100 100" xmlns="http://www.w3.org/2000/svg">
  <!-- Темное облако (Overcast) -->
  <path d="M20 40 
           A15 15 0 1 1 30 40 
           A10 10 0 1 1 40 40 
           A15 15 0 1 1 60 40 
           Q70 40 70 30 
           Q70 20 60 20 
           Q55 10 40 10 
           Q25 10 20 20 
           Q10 20 10 30 
           Q10 40 20 40Z" 
        fill="#607D8B" />
  
  <!-- Капли дождя -->
  <path d="M30 55 L35 65 L25 65 Z" fill="#29B6F6" />
  <path d="M40 55 L45 65 L35 65 Z" fill="#29B6F6" />
  <path d="M50 55 L55 65 L45 65 Z" fill="#29B6F6" />
  <path d="M35 70 L40 80 L30 80 Z" fill="#29B6F6" />
  <path d="M45 70 L50 80 L40 80 Z" fill="#29B6F6" />
</svg>