<svg width="100" height="100" viewBox="0 0 100 100" xmlns="http://www.w3.org/2000/svg">
  <!-- Солнце -->
  <circle cx="25" cy="25" r="10" fill="#FFEB3B" />
  
  <!-- Солнечные лучи -->
  <path d="M25 12 L25 5 M25 45 L25 38 M8 25 L15 25 M42 25 L35 25" 
        stroke="#FFEB3B" stroke-width="2" />
  <path d="M15 15 L10 10 M35 15 L40 10 M15 35 L10 40 M35 35 L40 40" 
        stroke="#FFEB3B" stroke-width="2" />
  
  <!-- Дождевое облако -->
  <path d="M45 40 
           A12 12 0 1 1 53 40 
           A8 8 0 1 1 61 40 
           A12 12 0 1 1 75 40 
           Q80 40 80 35 
           Q80 30 75 30 
           Q72 25 61 25 
           Q50 25 45 30 
           Q40 30 40 35 
           Q40 40 45 40Z" 
        fill="#90A4AE" />
  
  <!-- Капли дождя из облака -->
  <path d="M55 50 L58 55 L52 55 Z" fill="#29B6F6" />
  <path d="M62 50 L65 55 L59 55 Z" fill="#29B6F6" />
  <path d="M69 50 L72 55 L66 55 Z" fill="#29B6F6" />
  <path d="M58 58 L61 63 L55 63 Z" fill="#29B6F6" />
  <path d="M65 58 L68 63 L62 63 Z" fill="#29B6F6" />
</svg>



